# Tiled2Unity generated file. Do not modify by hand.
# Wavefront file for 'fase1doce_mesh_0004.obj'

# Vertices (Count = 1000)
v -5312 -192 0
v -5344 -192 0
v -5344 -160 0
v -5312 -160 0
v -5344 -192 0
v -5376 -192 0
v -5376 -160 0
v -5344 -160 0
v -5376 -192 0
v -5408 -192 0
v -5408 -160 0
v -5376 -160 0
v -5504 -192 0
v -5536 -192 0
v -5536 -160 0
v -5504 -160 0
v -5536 -192 0
v -5568 -192 0
v -5568 -160 0
v -5536 -160 0
v -5568 -192 0
v -5600 -192 0
v -5600 -160 0
v -5568 -160 0
v -5312 -224 0
v -5344 -224 0
v -5344 -192 0
v -5312 -192 0
v -5344 -224 0
v -5376 -224 0
v -5376 -192 0
v -5344 -192 0
v -5376 -224 0
v -5408 -224 0
v -5408 -192 0
v -5376 -192 0
v -5408 -224 0
v -5440 -224 0
v -5440 -192 0
v -5408 -192 0
v -5440 -224 0
v -5472 -224 0
v -5472 -192 0
v -5440 -192 0
v -5472 -224 0
v -5504 -224 0
v -5504 -192 0
v -5472 -192 0
v -5504 -224 0
v -5536 -224 0
v -5536 -192 0
v -5504 -192 0
v -5536 -224 0
v -5568 -224 0
v -5568 -192 0
v -5536 -192 0
v -5568 -224 0
v -5600 -224 0
v -5600 -192 0
v -5568 -192 0
v -5312 -256 0
v -5344 -256 0
v -5344 -224 0
v -5312 -224 0
v -5344 -256 0
v -5376 -256 0
v -5376 -224 0
v -5344 -224 0
v -5376 -256 0
v -5408 -256 0
v -5408 -224 0
v -5376 -224 0
v -5408 -256 0
v -5440 -256 0
v -5440 -224 0
v -5408 -224 0
v -5440 -256 0
v -5472 -256 0
v -5472 -224 0
v -5440 -224 0
v -5472 -256 0
v -5504 -256 0
v -5504 -224 0
v -5472 -224 0
v -5504 -256 0
v -5536 -256 0
v -5536 -224 0
v -5504 -224 0
v -5536 -256 0
v -5568 -256 0
v -5568 -224 0
v -5536 -224 0
v -5568 -256 0
v -5600 -256 0
v -5600 -224 0
v -5568 -224 0
v -5312 -288 0
v -5344 -288 0
v -5344 -256 0
v -5312 -256 0
v -5344 -288 0
v -5376 -288 0
v -5376 -256 0
v -5344 -256 0
v -5376 -288 0
v -5408 -288 0
v -5408 -256 0
v -5376 -256 0
v -5408 -288 0
v -5440 -288 0
v -5440 -256 0
v -5408 -256 0
v -5440 -288 0
v -5472 -288 0
v -5472 -256 0
v -5440 -256 0
v -5472 -288 0
v -5504 -288 0
v -5504 -256 0
v -5472 -256 0
v -5504 -288 0
v -5536 -288 0
v -5536 -256 0
v -5504 -256 0
v -5536 -288 0
v -5568 -288 0
v -5568 -256 0
v -5536 -256 0
v -5568 -288 0
v -5600 -288 0
v -5600 -256 0
v -5568 -256 0
v -5312 -320 0
v -5344 -320 0
v -5344 -288 0
v -5312 -288 0
v -5344 -320 0
v -5376 -320 0
v -5376 -288 0
v -5344 -288 0
v -5376 -320 0
v -5408 -320 0
v -5408 -288 0
v -5376 -288 0
v -5408 -320 0
v -5440 -320 0
v -5440 -288 0
v -5408 -288 0
v -5440 -320 0
v -5472 -320 0
v -5472 -288 0
v -5440 -288 0
v -5472 -320 0
v -5504 -320 0
v -5504 -288 0
v -5472 -288 0
v -5504 -320 0
v -5536 -320 0
v -5536 -288 0
v -5504 -288 0
v -5536 -320 0
v -5568 -320 0
v -5568 -288 0
v -5536 -288 0
v -5568 -320 0
v -5600 -320 0
v -5600 -288 0
v -5568 -288 0
v -5312 -352 0
v -5344 -352 0
v -5344 -320 0
v -5312 -320 0
v -5344 -352 0
v -5376 -352 0
v -5376 -320 0
v -5344 -320 0
v -5376 -352 0
v -5408 -352 0
v -5408 -320 0
v -5376 -320 0
v -5408 -352 0
v -5440 -352 0
v -5440 -320 0
v -5408 -320 0
v -5440 -352 0
v -5472 -352 0
v -5472 -320 0
v -5440 -320 0
v -5472 -352 0
v -5504 -352 0
v -5504 -320 0
v -5472 -320 0
v -5504 -352 0
v -5536 -352 0
v -5536 -320 0
v -5504 -320 0
v -5536 -352 0
v -5568 -352 0
v -5568 -320 0
v -5536 -320 0
v -5568 -352 0
v -5600 -352 0
v -5600 -320 0
v -5568 -320 0
v -5312 -384 0
v -5344 -384 0
v -5344 -352 0
v -5312 -352 0
v -5344 -384 0
v -5376 -384 0
v -5376 -352 0
v -5344 -352 0
v -5376 -384 0
v -5408 -384 0
v -5408 -352 0
v -5376 -352 0
v -5408 -384 0
v -5440 -384 0
v -5440 -352 0
v -5408 -352 0
v -5440 -384 0
v -5472 -384 0
v -5472 -352 0
v -5440 -352 0
v -5472 -384 0
v -5504 -384 0
v -5504 -352 0
v -5472 -352 0
v -5504 -384 0
v -5536 -384 0
v -5536 -352 0
v -5504 -352 0
v -5536 -384 0
v -5568 -384 0
v -5568 -352 0
v -5536 -352 0
v -5568 -384 0
v -5600 -384 0
v -5600 -352 0
v -5568 -352 0
v -2016 -416 0
v -2048 -416 0
v -2048 -384 0
v -2016 -384 0
v -2048 -416 0
v -2080 -416 0
v -2080 -384 0
v -2048 -384 0
v -2080 -416 0
v -2112 -416 0
v -2112 -384 0
v -2080 -384 0
v -2208 -416 0
v -2240 -416 0
v -2240 -384 0
v -2208 -384 0
v -2240 -416 0
v -2272 -416 0
v -2272 -384 0
v -2240 -384 0
v -2272 -416 0
v -2304 -416 0
v -2304 -384 0
v -2272 -384 0
v -5312 -416 0
v -5344 -416 0
v -5344 -384 0
v -5312 -384 0
v -5344 -416 0
v -5376 -416 0
v -5376 -384 0
v -5344 -384 0
v -5376 -416 0
v -5408 -416 0
v -5408 -384 0
v -5376 -384 0
v -5408 -416 0
v -5440 -416 0
v -5440 -384 0
v -5408 -384 0
v -5440 -416 0
v -5472 -416 0
v -5472 -384 0
v -5440 -384 0
v -5472 -416 0
v -5504 -416 0
v -5504 -384 0
v -5472 -384 0
v -5504 -416 0
v -5536 -416 0
v -5536 -384 0
v -5504 -384 0
v -5536 -416 0
v -5568 -416 0
v -5568 -384 0
v -5536 -384 0
v -5568 -416 0
v -5600 -416 0
v -5600 -384 0
v -5568 -384 0
v -1920 -448 0
v -1952 -448 0
v -1952 -416 0
v -1920 -416 0
v -1952 -448 0
v -1984 -448 0
v -1984 -416 0
v -1952 -416 0
v -1984 -448 0
v -2016 -448 0
v -2016 -416 0
v -1984 -416 0
v -2016 -448 0
v -2048 -448 0
v -2048 -416 0
v -2016 -416 0
v -2048 -448 0
v -2080 -448 0
v -2080 -416 0
v -2048 -416 0
v -2080 -448 0
v -2112 -448 0
v -2112 -416 0
v -2080 -416 0
v -2112 -448 0
v -2144 -448 0
v -2144 -416 0
v -2112 -416 0
v -2144 -448 0
v -2176 -448 0
v -2176 -416 0
v -2144 -416 0
v -2176 -448 0
v -2208 -448 0
v -2208 -416 0
v -2176 -416 0
v -2208 -448 0
v -2240 -448 0
v -2240 -416 0
v -2208 -416 0
v -2240 -448 0
v -2272 -448 0
v -2272 -416 0
v -2240 -416 0
v -2272 -448 0
v -2304 -448 0
v -2304 -416 0
v -2272 -416 0
v -2304 -448 0
v -2336 -448 0
v -2336 -416 0
v -2304 -416 0
v -2336 -448 0
v -2368 -448 0
v -2368 -416 0
v -2336 -416 0
v -2368 -448 0
v -2400 -448 0
v -2400 -416 0
v -2368 -416 0
v -3040 -448 0
v -3072 -448 0
v -3072 -416 0
v -3040 -416 0
v -3072 -448 0
v -3104 -448 0
v -3104 -416 0
v -3072 -416 0
v -3104 -448 0
v -3136 -448 0
v -3136 -416 0
v -3104 -416 0
v -3136 -448 0
v -3168 -448 0
v -3168 -416 0
v -3136 -416 0
v -3168 -448 0
v -3200 -448 0
v -3200 -416 0
v -3168 -416 0
v -3200 -448 0
v -3232 -448 0
v -3232 -416 0
v -3200 -416 0
v -3232 -448 0
v -3264 -448 0
v -3264 -416 0
v -3232 -416 0
v -3264 -448 0
v -3296 -448 0
v -3296 -416 0
v -3264 -416 0
v -3296 -448 0
v -3328 -448 0
v -3328 -416 0
v -3296 -416 0
v -3328 -448 0
v -3360 -448 0
v -3360 -416 0
v -3328 -416 0
v -3360 -448 0
v -3392 -448 0
v -3392 -416 0
v -3360 -416 0
v -3392 -448 0
v -3424 -448 0
v -3424 -416 0
v -3392 -416 0
v -3424 -448 0
v -3456 -448 0
v -3456 -416 0
v -3424 -416 0
v -3456 -448 0
v -3488 -448 0
v -3488 -416 0
v -3456 -416 0
v -3488 -448 0
v -3520 -448 0
v -3520 -416 0
v -3488 -416 0
v -3520 -448 0
v -3552 -448 0
v -3552 -416 0
v -3520 -416 0
v -3552 -448 0
v -3584 -448 0
v -3584 -416 0
v -3552 -416 0
v -3584 -448 0
v -3616 -448 0
v -3616 -416 0
v -3584 -416 0
v -3616 -448 0
v -3648 -448 0
v -3648 -416 0
v -3616 -416 0
v -3648 -448 0
v -3680 -448 0
v -3680 -416 0
v -3648 -416 0
v -3680 -448 0
v -3712 -448 0
v -3712 -416 0
v -3680 -416 0
v -3712 -448 0
v -3744 -448 0
v -3744 -416 0
v -3712 -416 0
v -3744 -448 0
v -3776 -448 0
v -3776 -416 0
v -3744 -416 0
v -3776 -448 0
v -3808 -448 0
v -3808 -416 0
v -3776 -416 0
v -3808 -448 0
v -3840 -448 0
v -3840 -416 0
v -3808 -416 0
v -3840 -448 0
v -3872 -448 0
v -3872 -416 0
v -3840 -416 0
v -3872 -448 0
v -3904 -448 0
v -3904 -416 0
v -3872 -416 0
v -3904 -448 0
v -3936 -448 0
v -3936 -416 0
v -3904 -416 0
v -3936 -448 0
v -3968 -448 0
v -3968 -416 0
v -3936 -416 0
v -3968 -448 0
v -4000 -448 0
v -4000 -416 0
v -3968 -416 0
v -4000 -448 0
v -4032 -448 0
v -4032 -416 0
v -4000 -416 0
v -4032 -448 0
v -4064 -448 0
v -4064 -416 0
v -4032 -416 0
v -4064 -448 0
v -4096 -448 0
v -4096 -416 0
v -4064 -416 0
v -4096 -448 0
v -4128 -448 0
v -4128 -416 0
v -4096 -416 0
v -4128 -448 0
v -4160 -448 0
v -4160 -416 0
v -4128 -416 0
v -4160 -448 0
v -4192 -448 0
v -4192 -416 0
v -4160 -416 0
v -4192 -448 0
v -4224 -448 0
v -4224 -416 0
v -4192 -416 0
v -4224 -448 0
v -4256 -448 0
v -4256 -416 0
v -4224 -416 0
v -4256 -448 0
v -4288 -448 0
v -4288 -416 0
v -4256 -416 0
v -4288 -448 0
v -4320 -448 0
v -4320 -416 0
v -4288 -416 0
v -4320 -448 0
v -4352 -448 0
v -4352 -416 0
v -4320 -416 0
v -4352 -448 0
v -4384 -448 0
v -4384 -416 0
v -4352 -416 0
v -4384 -448 0
v -4416 -448 0
v -4416 -416 0
v -4384 -416 0
v -4416 -448 0
v -4448 -448 0
v -4448 -416 0
v -4416 -416 0
v -4448 -448 0
v -4480 -448 0
v -4480 -416 0
v -4448 -416 0
v -4480 -448 0
v -4512 -448 0
v -4512 -416 0
v -4480 -416 0
v -4512 -448 0
v -4544 -448 0
v -4544 -416 0
v -4512 -416 0
v -4544 -448 0
v -4576 -448 0
v -4576 -416 0
v -4544 -416 0
v -4576 -448 0
v -4608 -448 0
v -4608 -416 0
v -4576 -416 0
v -4608 -448 0
v -4640 -448 0
v -4640 -416 0
v -4608 -416 0
v -4640 -448 0
v -4672 -448 0
v -4672 -416 0
v -4640 -416 0
v -4672 -448 0
v -4704 -448 0
v -4704 -416 0
v -4672 -416 0
v -4704 -448 0
v -4736 -448 0
v -4736 -416 0
v -4704 -416 0
v -4736 -448 0
v -4768 -448 0
v -4768 -416 0
v -4736 -416 0
v -4768 -448 0
v -4800 -448 0
v -4800 -416 0
v -4768 -416 0
v -4800 -448 0
v -4832 -448 0
v -4832 -416 0
v -4800 -416 0
v -5312 -448 0
v -5344 -448 0
v -5344 -416 0
v -5312 -416 0
v -5344 -448 0
v -5376 -448 0
v -5376 -416 0
v -5344 -416 0
v -5376 -448 0
v -5408 -448 0
v -5408 -416 0
v -5376 -416 0
v -5408 -448 0
v -5440 -448 0
v -5440 -416 0
v -5408 -416 0
v -5440 -448 0
v -5472 -448 0
v -5472 -416 0
v -5440 -416 0
v -5472 -448 0
v -5504 -448 0
v -5504 -416 0
v -5472 -416 0
v -5504 -448 0
v -5536 -448 0
v -5536 -416 0
v -5504 -416 0
v -5536 -448 0
v -5568 -448 0
v -5568 -416 0
v -5536 -416 0
v -5568 -448 0
v -5600 -448 0
v -5600 -416 0
v -5568 -416 0
v -1920 -480 0
v -1952 -480 0
v -1952 -448 0
v -1920 -448 0
v -1952 -480 0
v -1984 -480 0
v -1984 -448 0
v -1952 -448 0
v -1984 -480 0
v -2016 -480 0
v -2016 -448 0
v -1984 -448 0
v -2016 -480 0
v -2048 -480 0
v -2048 -448 0
v -2016 -448 0
v -2048 -480 0
v -2080 -480 0
v -2080 -448 0
v -2048 -448 0
v -2080 -480 0
v -2112 -480 0
v -2112 -448 0
v -2080 -448 0
v -2112 -480 0
v -2144 -480 0
v -2144 -448 0
v -2112 -448 0
v -2144 -480 0
v -2176 -480 0
v -2176 -448 0
v -2144 -448 0
v -2176 -480 0
v -2208 -480 0
v -2208 -448 0
v -2176 -448 0
v -2208 -480 0
v -2240 -480 0
v -2240 -448 0
v -2208 -448 0
v -2240 -480 0
v -2272 -480 0
v -2272 -448 0
v -2240 -448 0
v -2272 -480 0
v -2304 -480 0
v -2304 -448 0
v -2272 -448 0
v -2304 -480 0
v -2336 -480 0
v -2336 -448 0
v -2304 -448 0
v -2336 -480 0
v -2368 -480 0
v -2368 -448 0
v -2336 -448 0
v -2368 -480 0
v -2400 -480 0
v -2400 -448 0
v -2368 -448 0
v -3040 -480 0
v -3072 -480 0
v -3072 -448 0
v -3040 -448 0
v -3072 -480 0
v -3104 -480 0
v -3104 -448 0
v -3072 -448 0
v -3104 -480 0
v -3136 -480 0
v -3136 -448 0
v -3104 -448 0
v -3136 -480 0
v -3168 -480 0
v -3168 -448 0
v -3136 -448 0
v -3168 -480 0
v -3200 -480 0
v -3200 -448 0
v -3168 -448 0
v -3200 -480 0
v -3232 -480 0
v -3232 -448 0
v -3200 -448 0
v -3232 -480 0
v -3264 -480 0
v -3264 -448 0
v -3232 -448 0
v -3264 -480 0
v -3296 -480 0
v -3296 -448 0
v -3264 -448 0
v -3296 -480 0
v -3328 -480 0
v -3328 -448 0
v -3296 -448 0
v -3328 -480 0
v -3360 -480 0
v -3360 -448 0
v -3328 -448 0
v -3360 -480 0
v -3392 -480 0
v -3392 -448 0
v -3360 -448 0
v -3392 -480 0
v -3424 -480 0
v -3424 -448 0
v -3392 -448 0
v -3424 -480 0
v -3456 -480 0
v -3456 -448 0
v -3424 -448 0
v -3456 -480 0
v -3488 -480 0
v -3488 -448 0
v -3456 -448 0
v -3488 -480 0
v -3520 -480 0
v -3520 -448 0
v -3488 -448 0
v -3520 -480 0
v -3552 -480 0
v -3552 -448 0
v -3520 -448 0
v -3552 -480 0
v -3584 -480 0
v -3584 -448 0
v -3552 -448 0
v -3584 -480 0
v -3616 -480 0
v -3616 -448 0
v -3584 -448 0
v -3616 -480 0
v -3648 -480 0
v -3648 -448 0
v -3616 -448 0
v -3648 -480 0
v -3680 -480 0
v -3680 -448 0
v -3648 -448 0
v -3680 -480 0
v -3712 -480 0
v -3712 -448 0
v -3680 -448 0
v -3712 -480 0
v -3744 -480 0
v -3744 -448 0
v -3712 -448 0
v -3744 -480 0
v -3776 -480 0
v -3776 -448 0
v -3744 -448 0
v -3776 -480 0
v -3808 -480 0
v -3808 -448 0
v -3776 -448 0
v -3808 -480 0
v -3840 -480 0
v -3840 -448 0
v -3808 -448 0
v -3840 -480 0
v -3872 -480 0
v -3872 -448 0
v -3840 -448 0
v -3872 -480 0
v -3904 -480 0
v -3904 -448 0
v -3872 -448 0
v -3904 -480 0
v -3936 -480 0
v -3936 -448 0
v -3904 -448 0
v -3936 -480 0
v -3968 -480 0
v -3968 -448 0
v -3936 -448 0
v -3968 -480 0
v -4000 -480 0
v -4000 -448 0
v -3968 -448 0
v -4000 -480 0
v -4032 -480 0
v -4032 -448 0
v -4000 -448 0
v -4032 -480 0
v -4064 -480 0
v -4064 -448 0
v -4032 -448 0
v -4064 -480 0
v -4096 -480 0
v -4096 -448 0
v -4064 -448 0
v -4096 -480 0
v -4128 -480 0
v -4128 -448 0
v -4096 -448 0
v -4128 -480 0
v -4160 -480 0
v -4160 -448 0
v -4128 -448 0
v -4160 -480 0
v -4192 -480 0
v -4192 -448 0
v -4160 -448 0
v -4192 -480 0
v -4224 -480 0
v -4224 -448 0
v -4192 -448 0
v -4224 -480 0
v -4256 -480 0
v -4256 -448 0
v -4224 -448 0
v -4256 -480 0
v -4288 -480 0
v -4288 -448 0
v -4256 -448 0
v -4288 -480 0
v -4320 -480 0
v -4320 -448 0
v -4288 -448 0
v -4320 -480 0
v -4352 -480 0
v -4352 -448 0
v -4320 -448 0
v -4352 -480 0
v -4384 -480 0
v -4384 -448 0
v -4352 -448 0
v -4384 -480 0
v -4416 -480 0
v -4416 -448 0
v -4384 -448 0
v -4416 -480 0
v -4448 -480 0
v -4448 -448 0
v -4416 -448 0
v -4448 -480 0
v -4480 -480 0
v -4480 -448 0
v -4448 -448 0
v -4480 -480 0
v -4512 -480 0
v -4512 -448 0
v -4480 -448 0
v -4512 -480 0
v -4544 -480 0
v -4544 -448 0
v -4512 -448 0
v -4544 -480 0
v -4576 -480 0
v -4576 -448 0
v -4544 -448 0
v -4576 -480 0
v -4608 -480 0
v -4608 -448 0
v -4576 -448 0
v -4608 -480 0
v -4640 -480 0
v -4640 -448 0
v -4608 -448 0
v -4640 -480 0
v -4672 -480 0
v -4672 -448 0
v -4640 -448 0
v -4672 -480 0
v -4704 -480 0
v -4704 -448 0
v -4672 -448 0
v -4704 -480 0
v -4736 -480 0
v -4736 -448 0
v -4704 -448 0
v -4736 -480 0
v -4768 -480 0
v -4768 -448 0
v -4736 -448 0
v -4768 -480 0
v -4800 -480 0
v -4800 -448 0
v -4768 -448 0
v -4800 -480 0
v -4832 -480 0
v -4832 -448 0
v -4800 -448 0
v -4832 -480 0
v -4864 -480 0
v -4864 -448 0
v -4832 -448 0
v -4864 -480 0
v -4896 -480 0
v -4896 -448 0
v -4864 -448 0
v -4896 -480 0
v -4928 -480 0
v -4928 -448 0
v -4896 -448 0
v -4928 -480 0
v -4960 -480 0
v -4960 -448 0
v -4928 -448 0
v -4960 -480 0
v -4992 -480 0
v -4992 -448 0
v -4960 -448 0
v -4992 -480 0
v -5024 -480 0
v -5024 -448 0
v -4992 -448 0
v -5024 -480 0
v -5056 -480 0
v -5056 -448 0
v -5024 -448 0
v -5056 -480 0
v -5088 -480 0
v -5088 -448 0
v -5056 -448 0
v -5088 -480 0
v -5120 -480 0
v -5120 -448 0
v -5088 -448 0
v -5120 -480 0
v -5152 -480 0
v -5152 -448 0
v -5120 -448 0
v -5152 -480 0
v -5184 -480 0
v -5184 -448 0
v -5152 -448 0
v -5184 -480 0
v -5216 -480 0
v -5216 -448 0
v -5184 -448 0
v -5216 -480 0
v -5248 -480 0
v -5248 -448 0
v -5216 -448 0
v -5248 -480 0
v -5280 -480 0
v -5280 -448 0
v -5248 -448 0
v -5280 -480 0
v -5312 -480 0
v -5312 -448 0
v -5280 -448 0
v -5312 -480 0
v -5344 -480 0
v -5344 -448 0
v -5312 -448 0
v -5344 -480 0
v -5376 -480 0
v -5376 -448 0
v -5344 -448 0
v -5376 -480 0
v -5408 -480 0
v -5408 -448 0
v -5376 -448 0
v -5408 -480 0
v -5440 -480 0
v -5440 -448 0
v -5408 -448 0
v -5440 -480 0
v -5472 -480 0
v -5472 -448 0
v -5440 -448 0
v -5472 -480 0
v -5504 -480 0
v -5504 -448 0
v -5472 -448 0
v -5504 -480 0
v -5536 -480 0
v -5536 -448 0
v -5504 -448 0
v -5536 -480 0
v -5568 -480 0
v -5568 -448 0
v -5536 -448 0
v -5568 -480 0
v -5600 -480 0
v -5600 -448 0
v -5568 -448 0

# Texture cooridinates (Count = 8)
vt 0.9068256 0.5651706
vt 0.9286962 0.5651706
vt 0.9286962 0.6270624
vt 0.9068256 0.6270624
vt 0.9289403 0.5030347
vt 0.9508109 0.5030347
vt 0.9508109 0.5649265
vt 0.9289403 0.5649265

# Normal
vn 0 0 -1

# Mesh description
g fase1doce_mesh_0004

# Faces
f 1/1/1 2/2/1 3/3/1 4/4/1
f 5/1/1 6/2/1 7/3/1 8/4/1
f 9/1/1 10/2/1 11/3/1 12/4/1
f 13/1/1 14/2/1 15/3/1 16/4/1
f 17/1/1 18/2/1 19/3/1 20/4/1
f 21/1/1 22/2/1 23/3/1 24/4/1
f 25/5/1 26/6/1 27/7/1 28/8/1
f 29/5/1 30/6/1 31/7/1 32/8/1
f 33/5/1 34/6/1 35/7/1 36/8/1
f 37/5/1 38/6/1 39/7/1 40/8/1
f 41/5/1 42/6/1 43/7/1 44/8/1
f 45/5/1 46/6/1 47/7/1 48/8/1
f 49/5/1 50/6/1 51/7/1 52/8/1
f 53/5/1 54/6/1 55/7/1 56/8/1
f 57/5/1 58/6/1 59/7/1 60/8/1
f 61/5/1 62/6/1 63/7/1 64/8/1
f 65/5/1 66/6/1 67/7/1 68/8/1
f 69/5/1 70/6/1 71/7/1 72/8/1
f 73/5/1 74/6/1 75/7/1 76/8/1
f 77/5/1 78/6/1 79/7/1 80/8/1
f 81/5/1 82/6/1 83/7/1 84/8/1
f 85/5/1 86/6/1 87/7/1 88/8/1
f 89/5/1 90/6/1 91/7/1 92/8/1
f 93/5/1 94/6/1 95/7/1 96/8/1
f 97/5/1 98/6/1 99/7/1 100/8/1
f 101/5/1 102/6/1 103/7/1 104/8/1
f 105/5/1 106/6/1 107/7/1 108/8/1
f 109/5/1 110/6/1 111/7/1 112/8/1
f 113/5/1 114/6/1 115/7/1 116/8/1
f 117/5/1 118/6/1 119/7/1 120/8/1
f 121/5/1 122/6/1 123/7/1 124/8/1
f 125/5/1 126/6/1 127/7/1 128/8/1
f 129/5/1 130/6/1 131/7/1 132/8/1
f 133/5/1 134/6/1 135/7/1 136/8/1
f 137/5/1 138/6/1 139/7/1 140/8/1
f 141/5/1 142/6/1 143/7/1 144/8/1
f 145/5/1 146/6/1 147/7/1 148/8/1
f 149/5/1 150/6/1 151/7/1 152/8/1
f 153/5/1 154/6/1 155/7/1 156/8/1
f 157/5/1 158/6/1 159/7/1 160/8/1
f 161/5/1 162/6/1 163/7/1 164/8/1
f 165/5/1 166/6/1 167/7/1 168/8/1
f 169/5/1 170/6/1 171/7/1 172/8/1
f 173/5/1 174/6/1 175/7/1 176/8/1
f 177/5/1 178/6/1 179/7/1 180/8/1
f 181/5/1 182/6/1 183/7/1 184/8/1
f 185/5/1 186/6/1 187/7/1 188/8/1
f 189/5/1 190/6/1 191/7/1 192/8/1
f 193/5/1 194/6/1 195/7/1 196/8/1
f 197/5/1 198/6/1 199/7/1 200/8/1
f 201/5/1 202/6/1 203/7/1 204/8/1
f 205/5/1 206/6/1 207/7/1 208/8/1
f 209/5/1 210/6/1 211/7/1 212/8/1
f 213/5/1 214/6/1 215/7/1 216/8/1
f 217/5/1 218/6/1 219/7/1 220/8/1
f 221/5/1 222/6/1 223/7/1 224/8/1
f 225/5/1 226/6/1 227/7/1 228/8/1
f 229/5/1 230/6/1 231/7/1 232/8/1
f 233/5/1 234/6/1 235/7/1 236/8/1
f 237/5/1 238/6/1 239/7/1 240/8/1
f 241/1/1 242/2/1 243/3/1 244/4/1
f 245/1/1 246/2/1 247/3/1 248/4/1
f 249/1/1 250/2/1 251/3/1 252/4/1
f 253/1/1 254/2/1 255/3/1 256/4/1
f 257/1/1 258/2/1 259/3/1 260/4/1
f 261/1/1 262/2/1 263/3/1 264/4/1
f 265/5/1 266/6/1 267/7/1 268/8/1
f 269/5/1 270/6/1 271/7/1 272/8/1
f 273/5/1 274/6/1 275/7/1 276/8/1
f 277/5/1 278/6/1 279/7/1 280/8/1
f 281/5/1 282/6/1 283/7/1 284/8/1
f 285/5/1 286/6/1 287/7/1 288/8/1
f 289/5/1 290/6/1 291/7/1 292/8/1
f 293/5/1 294/6/1 295/7/1 296/8/1
f 297/5/1 298/6/1 299/7/1 300/8/1
f 301/5/1 302/6/1 303/7/1 304/8/1
f 305/5/1 306/6/1 307/7/1 308/8/1
f 309/5/1 310/6/1 311/7/1 312/8/1
f 313/5/1 314/6/1 315/7/1 316/8/1
f 317/5/1 318/6/1 319/7/1 320/8/1
f 321/5/1 322/6/1 323/7/1 324/8/1
f 325/5/1 326/6/1 327/7/1 328/8/1
f 329/5/1 330/6/1 331/7/1 332/8/1
f 333/5/1 334/6/1 335/7/1 336/8/1
f 337/5/1 338/6/1 339/7/1 340/8/1
f 341/5/1 342/6/1 343/7/1 344/8/1
f 345/5/1 346/6/1 347/7/1 348/8/1
f 349/5/1 350/6/1 351/7/1 352/8/1
f 353/5/1 354/6/1 355/7/1 356/8/1
f 357/5/1 358/6/1 359/7/1 360/8/1
f 361/1/1 362/2/1 363/3/1 364/4/1
f 365/1/1 366/2/1 367/3/1 368/4/1
f 369/1/1 370/2/1 371/3/1 372/4/1
f 373/1/1 374/2/1 375/3/1 376/4/1
f 377/1/1 378/2/1 379/3/1 380/4/1
f 381/1/1 382/2/1 383/3/1 384/4/1
f 385/1/1 386/2/1 387/3/1 388/4/1
f 389/1/1 390/2/1 391/3/1 392/4/1
f 393/1/1 394/2/1 395/3/1 396/4/1
f 397/1/1 398/2/1 399/3/1 400/4/1
f 401/1/1 402/2/1 403/3/1 404/4/1
f 405/1/1 406/2/1 407/3/1 408/4/1
f 409/1/1 410/2/1 411/3/1 412/4/1
f 413/1/1 414/2/1 415/3/1 416/4/1
f 417/1/1 418/2/1 419/3/1 420/4/1
f 421/1/1 422/2/1 423/3/1 424/4/1
f 425/1/1 426/2/1 427/3/1 428/4/1
f 429/1/1 430/2/1 431/3/1 432/4/1
f 433/1/1 434/2/1 435/3/1 436/4/1
f 437/1/1 438/2/1 439/3/1 440/4/1
f 441/1/1 442/2/1 443/3/1 444/4/1
f 445/1/1 446/2/1 447/3/1 448/4/1
f 449/1/1 450/2/1 451/3/1 452/4/1
f 453/1/1 454/2/1 455/3/1 456/4/1
f 457/1/1 458/2/1 459/3/1 460/4/1
f 461/1/1 462/2/1 463/3/1 464/4/1
f 465/1/1 466/2/1 467/3/1 468/4/1
f 469/1/1 470/2/1 471/3/1 472/4/1
f 473/1/1 474/2/1 475/3/1 476/4/1
f 477/1/1 478/2/1 479/3/1 480/4/1
f 481/1/1 482/2/1 483/3/1 484/4/1
f 485/1/1 486/2/1 487/3/1 488/4/1
f 489/1/1 490/2/1 491/3/1 492/4/1
f 493/1/1 494/2/1 495/3/1 496/4/1
f 497/1/1 498/2/1 499/3/1 500/4/1
f 501/1/1 502/2/1 503/3/1 504/4/1
f 505/1/1 506/2/1 507/3/1 508/4/1
f 509/1/1 510/2/1 511/3/1 512/4/1
f 513/1/1 514/2/1 515/3/1 516/4/1
f 517/1/1 518/2/1 519/3/1 520/4/1
f 521/1/1 522/2/1 523/3/1 524/4/1
f 525/1/1 526/2/1 527/3/1 528/4/1
f 529/1/1 530/2/1 531/3/1 532/4/1
f 533/1/1 534/2/1 535/3/1 536/4/1
f 537/1/1 538/2/1 539/3/1 540/4/1
f 541/1/1 542/2/1 543/3/1 544/4/1
f 545/1/1 546/2/1 547/3/1 548/4/1
f 549/1/1 550/2/1 551/3/1 552/4/1
f 553/1/1 554/2/1 555/3/1 556/4/1
f 557/1/1 558/2/1 559/3/1 560/4/1
f 561/1/1 562/2/1 563/3/1 564/4/1
f 565/1/1 566/2/1 567/3/1 568/4/1
f 569/1/1 570/2/1 571/3/1 572/4/1
f 573/1/1 574/2/1 575/3/1 576/4/1
f 577/1/1 578/2/1 579/3/1 580/4/1
f 581/1/1 582/2/1 583/3/1 584/4/1
f 585/5/1 586/6/1 587/7/1 588/8/1
f 589/5/1 590/6/1 591/7/1 592/8/1
f 593/5/1 594/6/1 595/7/1 596/8/1
f 597/5/1 598/6/1 599/7/1 600/8/1
f 601/5/1 602/6/1 603/7/1 604/8/1
f 605/5/1 606/6/1 607/7/1 608/8/1
f 609/5/1 610/6/1 611/7/1 612/8/1
f 613/5/1 614/6/1 615/7/1 616/8/1
f 617/5/1 618/6/1 619/7/1 620/8/1
f 621/5/1 622/6/1 623/7/1 624/8/1
f 625/5/1 626/6/1 627/7/1 628/8/1
f 629/5/1 630/6/1 631/7/1 632/8/1
f 633/5/1 634/6/1 635/7/1 636/8/1
f 637/5/1 638/6/1 639/7/1 640/8/1
f 641/5/1 642/6/1 643/7/1 644/8/1
f 645/5/1 646/6/1 647/7/1 648/8/1
f 649/5/1 650/6/1 651/7/1 652/8/1
f 653/5/1 654/6/1 655/7/1 656/8/1
f 657/5/1 658/6/1 659/7/1 660/8/1
f 661/5/1 662/6/1 663/7/1 664/8/1
f 665/5/1 666/6/1 667/7/1 668/8/1
f 669/5/1 670/6/1 671/7/1 672/8/1
f 673/5/1 674/6/1 675/7/1 676/8/1
f 677/5/1 678/6/1 679/7/1 680/8/1
f 681/5/1 682/6/1 683/7/1 684/8/1
f 685/5/1 686/6/1 687/7/1 688/8/1
f 689/5/1 690/6/1 691/7/1 692/8/1
f 693/5/1 694/6/1 695/7/1 696/8/1
f 697/5/1 698/6/1 699/7/1 700/8/1
f 701/5/1 702/6/1 703/7/1 704/8/1
f 705/5/1 706/6/1 707/7/1 708/8/1
f 709/5/1 710/6/1 711/7/1 712/8/1
f 713/5/1 714/6/1 715/7/1 716/8/1
f 717/5/1 718/6/1 719/7/1 720/8/1
f 721/5/1 722/6/1 723/7/1 724/8/1
f 725/5/1 726/6/1 727/7/1 728/8/1
f 729/5/1 730/6/1 731/7/1 732/8/1
f 733/5/1 734/6/1 735/7/1 736/8/1
f 737/5/1 738/6/1 739/7/1 740/8/1
f 741/5/1 742/6/1 743/7/1 744/8/1
f 745/5/1 746/6/1 747/7/1 748/8/1
f 749/5/1 750/6/1 751/7/1 752/8/1
f 753/5/1 754/6/1 755/7/1 756/8/1
f 757/5/1 758/6/1 759/7/1 760/8/1
f 761/5/1 762/6/1 763/7/1 764/8/1
f 765/5/1 766/6/1 767/7/1 768/8/1
f 769/5/1 770/6/1 771/7/1 772/8/1
f 773/5/1 774/6/1 775/7/1 776/8/1
f 777/5/1 778/6/1 779/7/1 780/8/1
f 781/5/1 782/6/1 783/7/1 784/8/1
f 785/5/1 786/6/1 787/7/1 788/8/1
f 789/5/1 790/6/1 791/7/1 792/8/1
f 793/5/1 794/6/1 795/7/1 796/8/1
f 797/5/1 798/6/1 799/7/1 800/8/1
f 801/5/1 802/6/1 803/7/1 804/8/1
f 805/5/1 806/6/1 807/7/1 808/8/1
f 809/5/1 810/6/1 811/7/1 812/8/1
f 813/5/1 814/6/1 815/7/1 816/8/1
f 817/5/1 818/6/1 819/7/1 820/8/1
f 821/5/1 822/6/1 823/7/1 824/8/1
f 825/5/1 826/6/1 827/7/1 828/8/1
f 829/5/1 830/6/1 831/7/1 832/8/1
f 833/5/1 834/6/1 835/7/1 836/8/1
f 837/5/1 838/6/1 839/7/1 840/8/1
f 841/5/1 842/6/1 843/7/1 844/8/1
f 845/5/1 846/6/1 847/7/1 848/8/1
f 849/5/1 850/6/1 851/7/1 852/8/1
f 853/5/1 854/6/1 855/7/1 856/8/1
f 857/5/1 858/6/1 859/7/1 860/8/1
f 861/5/1 862/6/1 863/7/1 864/8/1
f 865/5/1 866/6/1 867/7/1 868/8/1
f 869/5/1 870/6/1 871/7/1 872/8/1
f 873/5/1 874/6/1 875/7/1 876/8/1
f 877/5/1 878/6/1 879/7/1 880/8/1
f 881/5/1 882/6/1 883/7/1 884/8/1
f 885/5/1 886/6/1 887/7/1 888/8/1
f 889/5/1 890/6/1 891/7/1 892/8/1
f 893/5/1 894/6/1 895/7/1 896/8/1
f 897/5/1 898/6/1 899/7/1 900/8/1
f 901/5/1 902/6/1 903/7/1 904/8/1
f 905/5/1 906/6/1 907/7/1 908/8/1
f 909/5/1 910/6/1 911/7/1 912/8/1
f 913/5/1 914/6/1 915/7/1 916/8/1
f 917/5/1 918/6/1 919/7/1 920/8/1
f 921/5/1 922/6/1 923/7/1 924/8/1
f 925/5/1 926/6/1 927/7/1 928/8/1
f 929/5/1 930/6/1 931/7/1 932/8/1
f 933/5/1 934/6/1 935/7/1 936/8/1
f 937/5/1 938/6/1 939/7/1 940/8/1
f 941/5/1 942/6/1 943/7/1 944/8/1
f 945/5/1 946/6/1 947/7/1 948/8/1
f 949/5/1 950/6/1 951/7/1 952/8/1
f 953/5/1 954/6/1 955/7/1 956/8/1
f 957/5/1 958/6/1 959/7/1 960/8/1
f 961/5/1 962/6/1 963/7/1 964/8/1
f 965/5/1 966/6/1 967/7/1 968/8/1
f 969/5/1 970/6/1 971/7/1 972/8/1
f 973/5/1 974/6/1 975/7/1 976/8/1
f 977/5/1 978/6/1 979/7/1 980/8/1
f 981/5/1 982/6/1 983/7/1 984/8/1
f 985/5/1 986/6/1 987/7/1 988/8/1
f 989/5/1 990/6/1 991/7/1 992/8/1
f 993/5/1 994/6/1 995/7/1 996/8/1
f 997/5/1 998/6/1 999/7/1 1000/8/1

